<svg xmlns="http://www.w3.org/2000/svg" xmlns:xlink="http://www.w3.org/1999/xlink" version="1.1" id="Layer_1" x="0px" y="0px" width="100px" height="100px" viewBox="0 0 100 100" enable-background="new 0 0 100 100" xml:space="preserve">
<path fill="#888" d="M60.982,90.775c2.478-1.696,5.816-4.02,10.529-7.312c0.359-0.265,1.057-0.669,2.11-1.246  c1.138-0.607,2.368-0.906,3.655-0.906H100V61.16H74.971c-1.916,0-4.074,0.277-6.402,0.82c-2.312,0.541-4.309,1.383-5.936,2.521  l-23.622,17.26c-1.045,0.813-1.559,1.782-1.559,2.938c0,0.598,0.135,1.284,0.404,2.018c0.292,0.775,0.658,1.448,1.13,2.082  c0.479,0.636,0.986,1.132,1.562,1.521c0.531,0.35,1.113,0.531,1.744,0.531c0.703,0,1.36-0.255,2.014-0.76l0.072-0.054l11.394-6.899  H59.6L45.418,91.7c-0.969,0.665-2.081,1.001-3.307,1.001c-1.651,0-3.117-0.77-4.364-2.296c-1.044-1.298-1.714-2.683-1.976-4.128  H14.377c-2.379,0-4.17,0.591-5.315,1.753c-1.167,1.175-1.735,2.366-1.735,3.655c0,1.295,0.56,2.447,1.719,3.526  c1.145,1.082,2.939,1.621,5.332,1.621h32.978c1.175,0,2.242-0.106,3.251-0.351c1.02-0.254,2.347-0.805,3.955-1.664  C56.214,93.927,58.371,92.568,60.982,90.775z"/>
<g id="Your_Icon_1_">
	<g>
		<path fill="#888" d="M33.695,22.963c-1.175,0-2.368,0.126-3.521,0.396c-4.777,1.066-8.686,4.28-10.746,8.778    c-2.06,4.532-1.886,9.626,0.451,13.96c1.833,3.396,3.197,6.592,4.182,9.768c0.565,1.861,0.738,3.777,0.91,5.801l0.026,0.252    c0.21,2.348,1.79,3.812,4.136,3.812h1.419h7.637c2.393,0,3.93-1.396,4.22-3.795c0.042-0.379,0.089-0.76,0.127-1.154    c0.16-1.428,0.315-2.801,0.631-4.119c0.893-3.686,2.582-7.152,4.271-10.329c1.803-3.417,2.372-6.992,1.676-10.602    C47.709,28.325,41.218,22.963,33.695,22.963z M39.074,56.084c-0.26,1.064-0.374,2.146-0.484,3.196    c-0.047,0.435-0.101,0.885-0.156,1.319c-0.017,0.107-0.026,0.23-0.026,0.34c0,0.039,0,0.071-0.012,0.109    c-0.026,0.271-0.059,0.473-0.081,0.577c-0.016,0-0.024,0-0.033,0H30.64h-1.5c-0.016,0-0.033,0-0.05,0l0,0    c-0.076-0.451-0.126-0.957-0.155-1.644c-0.127-2.657-0.788-5.344-2.077-8.455c-1.108-2.669-2.211-5.053-3.37-7.293    c-1.558-3.033-1.824-6.391-0.72-9.478c1.074-3.054,3.349-5.455,6.411-6.79c1.407-0.619,2.907-0.943,4.453-0.943    c5.543,0,10.463,4.027,11.457,9.393c0.535,2.89,0.013,5.741-1.617,8.702C41.362,48.986,39.917,52.562,39.074,56.084z"/>
		<path fill="#888" d="M39.989,67.688H27.427c-1.335,0-2.418,1.045-2.418,2.33c0,1.297,1.083,2.347,2.418,2.347h12.562    c1.325,0,2.408-1.05,2.408-2.347C42.397,68.732,41.314,67.688,39.989,67.688z"/>
		<path fill="#888" d="M38.084,74.314h-8.769c-1.172,0-2.085,1.03-2.085,2.328c0,1.318,0.914,2.352,2.085,2.352h8.769    c1.175,0,2.093-1.032,2.093-2.352C40.177,75.346,39.259,74.314,38.084,74.314z"/>
		<path fill="#888" d="M18.278,35.747c-0.695,3.614-0.114,7.186,1.689,10.602c1.681,3.198,3.37,6.647,4.263,10.349    c0.324,1.319,0.472,2.672,0.632,4.116c0.038,0.379,0.092,0.758,0.126,1.137c0.292,2.422,1.836,3.796,4.221,3.796h7.636h1.42    c2.345,0,3.934-1.465,4.144-3.796l0.017-0.27c0.168-2.022,0.341-3.938,0.91-5.779c0.986-3.196,2.351-6.395,4.183-9.79    c2.347-4.334,2.51-9.407,0.451-13.943c-2.048-4.511-5.961-7.708-10.738-8.796c-1.162-0.269-2.346-0.396-3.53-0.396    C26.181,22.979,19.698,28.346,18.278,35.747z M23.936,45.14c-1.626-2.96-2.162-5.817-1.617-8.706    c0.981-5.346,5.905-9.372,11.448-9.372c1.546,0,3.045,0.308,4.461,0.922c3.054,1.335,5.328,3.753,6.41,6.79    c1.095,3.087,0.83,6.445-0.732,9.482c-1.154,2.237-2.254,4.621-3.365,7.295c-1.281,3.127-1.943,5.797-2.078,8.454    c-0.029,0.683-0.071,1.188-0.155,1.64l0,0c-0.017,0-0.034,0-0.055,0l-1.487-0.018v0.038h-7.65c-0.008,0-0.017,0-0.025,0    c-0.029-0.126-0.055-0.308-0.093-0.599c0-0.034,0-0.07,0-0.108c-0.008-0.104-0.017-0.216-0.033-0.341    c-0.059-0.436-0.102-0.887-0.147-1.319c-0.118-1.049-0.235-2.131-0.484-3.196C27.482,52.596,26.038,49.003,23.936,45.14z"/>
		<path fill="#888" d="M27.41,67.706h12.57c1.327,0,2.409,1.044,2.409,2.329c0,1.301-1.083,2.346-2.409,2.346H27.41    c-1.318,0-2.401-1.045-2.401-2.346C25.009,68.75,26.092,67.706,27.41,67.706z"/>
		<path fill="#888" d="M29.323,74.332h8.77c1.166,0,2.084,1.029,2.084,2.345c0,1.304-0.918,2.334-2.084,2.334h-8.77    c-1.176,0-2.094-1.03-2.094-2.334C27.229,75.361,28.147,74.332,29.323,74.332z"/>
		<path fill="#888" d="M16.539,23.94l-6.206-6.197c-0.829-0.83-0.75-2.203,0.173-3.142c0.931-0.923,2.304-0.994,3.134-0.165    l6.205,6.197c0.83,0.83,0.746,2.203-0.181,3.142C18.742,24.694,17.368,24.77,16.539,23.94z"/>
		<path fill="#888" d="M11.652,39.016H2.887c-1.176,0-2.098-1.028-2.098-2.347c0-1.301,0.922-2.329,2.098-2.329h8.766    c1.167,0,2.085,1.028,2.085,2.329C13.738,37.988,12.819,39.016,11.652,39.016z"/>
		<path fill="#888" d="M31.357,15.899V7.142c0-1.175,1.028-2.093,2.338-2.093c1.313,0,2.337,0.918,2.337,2.093v8.757    c0,1.175-1.024,2.098-2.337,2.098C32.385,17.997,31.357,17.074,31.357,15.899z"/>
		<path fill="#888" d="M50.869,23.919l6.203-6.197c0.822-0.83,0.75-2.22-0.18-3.138c-0.933-0.923-2.306-1.015-3.136-0.182    l-6.205,6.209c-0.821,0.834-0.75,2.204,0.181,3.125C48.657,24.678,50.039,24.749,50.869,23.919z"/>
		<path fill="#888" d="M55.745,38.999h8.774c1.176,0,2.09-1.027,2.09-2.347c0-1.301-0.914-2.329-2.09-2.329h-8.774    c-1.166,0-2.088,1.028-2.088,2.329C53.657,37.971,54.579,38.999,55.745,38.999z"/>
	</g>
</g>
</svg>