<svg xmlns="http://www.w3.org/2000/svg" xmlns:xlink="http://www.w3.org/1999/xlink" version="1.1" id="Layer_1" x="0px" y="0px" width="100px" height="100px" viewBox="0 0 100 100" enable-background="new 0 0 100 100" xml:space="preserve">
<path fill="#888" d="M48.701,85.118V53.262c0-3.392-2.737-6.151-6.101-6.151H19.434v36.361h25.6v0.137  C46.346,83.838,47.6,84.356,48.701,85.118z"/>
<path fill="#888" d="M88.062,54.043l-3.777-4.966v37.565H56.048l-0.243,0.054c-2.15,0.272-4.011,1.694-4.855,3.714l-0.67,1.603  l-0.67-1.603c-0.844-2.02-2.706-3.441-4.854-3.712l-0.419-0.054h-28.06V49.077l-3.777,4.966V92.5h75.563V54.043z"/>
<path fill="#888" d="M73.676,47.111v21.606l-3.569-2.694l-3.568,2.694V47.111H57.96c-3.364,0-6.102,2.758-6.102,6.15v31.855  c1.1-0.763,2.354-1.281,3.668-1.509v-0.093l0.727-0.044h24.871v-36.36H73.676z"/>
<path fill="#888" d="M70.135,23.334c-1.021-3.804-3.513-12.735-5.066-15.287c-2.254-3.695-5.256-3.709-5.592-3.695v0.016  c-0.055-0.005-0.106-0.016-0.162-0.016c-0.94,0-1.703,0.762-1.703,1.703c0,0.941,0.763,1.703,1.703,1.703  c0.074,0,0.146-0.013,0.218-0.022v0.023c0.058,0.001,1.413,0.074,2.627,2.063c0.899,1.475,3.033,8.768,4.357,13.455H32.255  c1.325-4.687,3.541-11.979,4.44-13.454c1.215-1.99,2.569-2.063,2.574-2.065V7.754c0.014,0,0.025,0.004,0.04,0.004  c0.94,0,1.703-0.762,1.703-1.703c0-0.916-0.725-1.657-1.631-1.696V4.352c-0.342-0.017-3.338,0-5.593,3.695  c-1.555,2.552-4.046,11.483-5.065,15.287c-0.296,0.593-0.481,1.26-0.481,1.974c0,1.078,0.34,2.785,0.818,5.079  c0.154,0.739,0.298,1.421,0.387,1.935c0.61,3.463,2.792,3.982,4.037,3.982h10.29c2.117,0,3.783-1.681,4.053-4.087l0.194-4.91  c0.865-0.518,1.95-0.518,2.817,0l0.187,4.82l0.009,0.09c0.267,2.406,1.934,4.087,4.052,4.087h10.289  c1.245,0,3.429-0.519,4.036-3.984c0.09-0.512,0.233-1.194,0.389-1.933c0.479-2.294,0.815-4.001,0.815-5.079  C70.612,24.594,70.43,23.927,70.135,23.334z M44.434,31.875c-0.05,0.374-0.244,1.021-0.662,1.021H33.483  c-0.191,0-0.478,0-0.682-1.162c-0.095-0.542-0.243-1.262-0.407-2.042c-0.197-0.939-0.432-2.078-0.585-3.008h12.928L44.434,31.875z   M66.46,29.692c-0.162,0.779-0.312,1.5-0.407,2.039c-0.204,1.165-0.491,1.165-0.681,1.165H55.084c-0.419,0-0.612-0.647-0.661-1.021  l-0.305-5.19h12.928C66.894,27.614,66.657,28.753,66.46,29.692z"/>
</svg>